<svg xmlns="http://www.w3.org/2000/svg" viewBox="0 0 751.18 133.27"><defs><style>.cls-1{fill:#222323;}.cls-2{fill:none;}</style></defs><g id="Calque_2" data-name="Calque 2"><g id="Calque_1-2" data-name="Calque 1"><path class="cls-1" d="M716.06,95.32V91.54l-94.4-3.79H533.52V65.92l4-8.81H520V15.6H509.15v5h8.77v7.37L505,57.11l4,8.81V87.75H485V74.46H471.32V87.75H436.26V74.46H422.6V87.75H387.55V74.46H373.89V87.75H131.19L37.64,95.32v4.13l4.15-.35v20H37.64l3.09,14.18h666l9.34-26.94-9.34.61V95Zm-49.81-2,14,.56V110.3h-14Zm-2,17h-14V92.69l14,.56ZM682.3,94l14,.56V110.3h-14ZM507.22,57.11,517.92,33V57.11ZM56.67,102.43v16.66H43.83V98.93L61.7,97.41l6.28,5Zm212.14,2h7.86v1.85l1.55,1.67v2.37h-9.39Zm16.69,5.89v-2.89l3.33-3h3.44v-4.8H287V95.89l-10.32,4.47v2H268.8l0-10.83h27.37l.05,18.76Zm308-18.76h27.89l26.73,1.07V110.3H615.82v-2.37l1.54-1.67v-1.85h14v-2h-14v-2L607,95.89v3.72h-5.28v4.8h3.44l3.33,3v2.89h-15ZM704.68,109l-1.32,1.32h-5V94.61l6.33.26Z"/><rect class="cls-2" width="751.18" height="133.27"/></g></g></svg>