<svg xmlns="http://www.w3.org/2000/svg" viewBox="0 0 751.18 132.98"><defs><style>.cls-1{fill:none;}.cls-2{fill:#222323;}</style></defs><g id="Calque_2" data-name="Calque 2"><g id="Calque_1-2" data-name="Calque 1"><rect class="cls-1" width="751.18" height="132.98"/><path class="cls-2" d="M716.2,95V91.25l-94.39-3.79h-5.09L580.1,50.85V15.31H569.3v5h8.76v7.37l-26.5,59.81H518V82l3.1-3.1-1.42-1.42,9.88-9.88h0l-1.43-1.43h0l-9.88,9.88-1.41-1.42L509.44,82l1.43,1.44,1.43,1.43,1.43,1.43-.11,3,2.31-1.85H485.12V75.18H471.46V87.46h-35V75.18H422.75V87.46H387.69V75.18H374V87.46H131.34L37.78,95v4.13l4.15-.35v20H37.78L40.88,133h666L716.2,106l-9.33.61v-12Zm-49.8-2,14,.56V110h-14Zm-2,17h-14V92.4l14,.56Zm18.1-16.33,14,.56V110h-14Zm-68.62-6.22H580.1V53.74ZM578.06,32.69V87.46H553.79ZM56.82,102.14V118.8H44V98.64l17.87-1.52,6.29,5Zm212.14,2h7.86V106l1.55,1.67V110H269ZM285.65,110v-2.89l3.32-3h3.44v-4.8h-5.28V95.6l-10.32,4.47v2H269l0-10.83h27.36l.06,18.76Zm308-18.76h27.9l26.72,1.07V110H616v-2.37l1.55-1.67v-1.85h14v-2h-14v-2L607.19,95.6v3.72h-5.28v4.8h3.44l3.32,3V110h-15Zm111.15,17.44L703.51,110h-5V94.32l6.33.26Z"/></g></g></svg>