<svg xmlns="http://www.w3.org/2000/svg" viewBox="0 0 751.18 132.99"><defs><style>.cls-1{fill:#222323;}.cls-2{fill:none;}</style></defs><g id="Calque_2" data-name="Calque 2"><g id="Calque_1-2" data-name="Calque 1"><path class="cls-1" d="M716.3,95V91.25l-94.4-3.78h-5.08L580.2,50.85V15.32H569.39v5h8.77v7.37L551.65,87.47H131.43L37.88,95v4.13L42,98.81v20H37.88L41,133H707L716.3,106l-9.34.62v-12Zm-49.81-2,14,.56V110h-14Zm-2,17h-14V92.4l14,.57Zm18.09-16.32,14,.56V110h-14Zm-68.61-6.22H580.2V53.74ZM578.16,32.7V87.47H553.88ZM56.91,102.15V118.8H44.07V98.64l17.87-1.51,6.28,5Zm212.14,2h7.87V106l1.54,1.66V110h-9.39ZM285.74,110v-2.88l3.33-3h3.44V99.33h-5.29V95.61l-10.31,4.47v2h-7.87l0-10.83h27.37l.05,18.76Zm308-18.76h27.9l26.72,1.07V110H616.06v-2.37l1.55-1.66v-1.86h14v-2h-14v-2l-10.32-4.47v3.72H602v4.79h3.44l3.33,3V110h-15ZM704.92,108.7,703.61,110h-5V94.33l6.33.25Z"/><rect class="cls-2" width="751.18" height="132.99"/></g></g></svg>