<svg xmlns="http://www.w3.org/2000/svg" viewBox="0 0 751.18 132.99"><defs><style>.cls-1{fill:#222323;}.cls-2{fill:none;}</style></defs><g id="Calque_2" data-name="Calque 2"><g id="Calque_1-2" data-name="Calque 1"><path class="cls-1" d="M729.18,94V90.25l-107.4-2.78H616.7L580.08,50.85V15.32H569.27v5H578v7.37L551.53,87.47H71.31L15,92.52l2.79,2.83h0L41.24,118.8H37.76L40.85,133h666L716.18,106l-7.25.48L721.6,93.84Zm-26.63,16h-4.08V93.24l6.33.17v14.35Zm-36.18-17.6,14,.37V110h-14Zm-2,17.6h-14V92l14,.36Zm18.09-17.18,14,.36V110h-14Zm-68.61-5.36H580.08V53.74ZM578,32.7V87.47H553.76ZM32,94.85l9.9-.91v19.91Zm8.05,19.89L21.17,95.84l8.65-.79Zm16.73-12.59V118.8H44.48l-.53-1v-24h-.66l12.9-1.17,11.91,9.51Zm212.14-.07,0-10.83h27.37l.05,18.76H269l0-5.89ZM608.66,110h-15V91.25h27.89l26.73.7V110H608.66Zm98.18-4.29V93.46l11.95.31Z"/><rect class="cls-2" width="751.18" height="132.99"/></g></g></svg>