<svg xmlns="http://www.w3.org/2000/svg" viewBox="0 0 751.18 132.99"><defs><style>.cls-1{fill:#222323;}.cls-2{fill:none;}</style></defs><g id="Calque_2" data-name="Calque 2"><g id="Calque_1-2" data-name="Calque 1"><path class="cls-1" d="M706.87,106.66,703.51,110H593.68V87.47H580.1V15.32H569.3v5h8.76v7.37l-1.63,3.67H564v5h10.19l-2.45,5.52h-12.5v5h10.3l-2.44,5.52H554.52v5h10.41l-2.44,5.52H549.76v5h10.52l-8.73,19.7H68.69l-53.64,5,3.34,3.56.14,0L41.27,118.8H37.78L40.88,133h666L716.2,106Zm-128.81-74V87.47H553.79ZM41.93,93.82v20L32,94.77ZM29.81,95l10.28,19.76L21.16,95.81Zm27,7.17V118.8H44.51l-.54-1v-24H42l14-1.34,12.13,9.68ZM269,110l-.05-18.76h27.36l.06,18.76Z"/><rect class="cls-2" width="751.18" height="132.99"/></g></g></svg>