<svg xmlns="http://www.w3.org/2000/svg" viewBox="0 0 80.85 21.01"><g id="Calque_2" data-name="Calque 2"><g id="Calque_1-2" data-name="Calque 1"><path d="M0,21V4.41H3v6.87H9.56V4.41h3V21h-3V14.14H3V21Z"/><path d="M19,20.49l-2.05-2a1.71,1.71,0,0,1-.52-1.25v-9A1.69,1.69,0,0,1,16.9,7l2.05-2a1.67,1.67,0,0,1,1.24-.52h6.32a1.71,1.71,0,0,1,1.25.52l2,2a1.69,1.69,0,0,1,.52,1.24v9a1.71,1.71,0,0,1-.52,1.25l-2,2a1.71,1.71,0,0,1-1.25.52H20.19A1.67,1.67,0,0,1,19,20.49ZM19.27,2V0h8.19V2Zm.22,14.91L20.56,18a.49.49,0,0,0,.35.15h4.88a.49.49,0,0,0,.35-.15l1.07-1.07a.5.5,0,0,0,.12-.35V8.84a.48.48,0,0,0-.12-.35L26.14,7.42a.49.49,0,0,0-.35-.15H20.91a.49.49,0,0,0-.35.15L19.49,8.49a.48.48,0,0,0-.12.35v7.74A.5.5,0,0,0,19.49,16.93Z"/><path d="M46.9,13.67l0,3.53a1.72,1.72,0,0,1-.53,1.25l-2,2a1.69,1.69,0,0,1-1.24.52H37a1.71,1.71,0,0,1-1.25-.52l-2.56-2.57,2.07-2L37.34,18a.49.49,0,0,0,.35.15h4.66a.46.46,0,0,0,.34-.15l1.07-1.07a.46.46,0,0,0,.13-.35V15a.54.54,0,0,0-.47-.5l-8.22-1a1.82,1.82,0,0,1-1.12-.58,1.66,1.66,0,0,1-.45-1.16V8.21A1.7,1.7,0,0,1,34.16,7l2-2a1.69,1.69,0,0,1,1.24-.52h5.88a1.69,1.69,0,0,1,1.24.52L47.1,7.49l-2,2.07L42.94,7.42a.47.47,0,0,0-.35-.15H38.16a.46.46,0,0,0-.34.15l-1,1a.49.49,0,0,0-.15.35v1.57a.47.47,0,0,0,.14.32.54.54,0,0,0,.33.18l8.24,1a1.89,1.89,0,0,1,1.12.59A1.64,1.64,0,0,1,46.9,13.67Z"/><path d="M50.53,21V4.41h3v6.87h6.57V4.41h3V21h-3V14.14H53.52V21Z"/><path d="M69.48,20.49l-2-2a1.72,1.72,0,0,1-.53-1.25v-9A1.7,1.7,0,0,1,67.44,7l2-2a1.69,1.69,0,0,1,1.24-.52H77a1.69,1.69,0,0,1,1.25.52l2,2a1.69,1.69,0,0,1,.52,1.24v9a1.71,1.71,0,0,1-.52,1.25l-2,2A1.69,1.69,0,0,1,77,21H70.72A1.69,1.69,0,0,1,69.48,20.49ZM69.8,2V0H78V2ZM70,16.93,71.1,18a.46.46,0,0,0,.34.15h4.88a.49.49,0,0,0,.35-.15l1.07-1.07a.5.5,0,0,0,.13-.35V8.84a.48.48,0,0,0-.13-.35L76.67,7.42a.49.49,0,0,0-.35-.15H71.44a.46.46,0,0,0-.34.15L70,8.49a.48.48,0,0,0-.12.35v7.74A.5.5,0,0,0,70,16.93Z"/></g></g></svg>