<svg id="bfdf9e88-1d99-4735-aef0-1ca69b392516" data-name="Layer 1" xmlns="http://www.w3.org/2000/svg" xmlns:xlink="http://www.w3.org/1999/xlink" viewBox="0 0 1190.55 841.89"><defs><style>.b43d4b3a-3aa1-4d17-b448-0e8c9e724bf5{fill:none;}.b0f348d7-8534-4c4f-aafc-f391132c2368{fill:#fff;}.a04302f6-ee47-4940-86f9-c56b40bb7f1a{clip-path:url(#a9d49dda-760e-4ecc-aa29-c6f00dc0493e);}.e2ad1ecf-00dd-4f7a-87de-e5e59ac9a236{fill:#faf06c;}</style><clipPath id="a9d49dda-760e-4ecc-aa29-c6f00dc0493e"><rect class="b43d4b3a-3aa1-4d17-b448-0e8c9e724bf5" width="1190.55" height="841.89"/></clipPath></defs><rect width="1190.55" height="841.89"/><path class="b0f348d7-8534-4c4f-aafc-f391132c2368" d="M393.4,380.61c5.76-29.88,32.76-45,53.64-45,48.24,0,75.24,38.52,75.24,95.4,0,52.56-27.72,95.4-73.08,95.4-26.28,0-51.12-15.48-58.32-42.12H389.8V521H353.44V269h38.88v111.6Zm42.12,115.56c24.84,0,46.08-22.68,46.08-65.16,0-40-19.8-66.6-46.08-66.6-25.2,0-44.28,31-44.28,66.6C391.24,471.69,406.72,496.17,435.52,496.17Z"/><g class="a04302f6-ee47-4940-86f9-c56b40bb7f1a"><path class="b0f348d7-8534-4c4f-aafc-f391132c2368" d="M730.14,60.93V17h40.32V60.93ZM730.86,269V89.37h38.88V269Z"/></g><path class="b0f348d7-8534-4c4f-aafc-f391132c2368" d="M1101.35,495.49v29.16c-7.2,2.88-19.44,5.76-36.72,5.76-44.28,0-55.8-20.88-55.8-50.4V372.37H972.11V345h36.72V291h38.88v54h43.92v27.36h-43.92v90.72c0,27,3.6,36.36,27,36.36C1084.07,499.45,1094.15,497.29,1101.35,495.49Z"/><g class="a04302f6-ee47-4940-86f9-c56b40bb7f1a"><path class="e2ad1ecf-00dd-4f7a-87de-e5e59ac9a236" d="M796.5,645.21l14.76,24.84-43.92,16.2,42.84,15.48-14,25.2-35.28-29.16,8.28,45.36h-28.8l7.2-45.72-35.28,29.16-14-25.2,42.84-15.48-44.28-15.12,14.76-24.84,35.64,28.8L739.62,629h28.8l-7.56,45.72Z"/><path class="b0f348d7-8534-4c4f-aafc-f391132c2368" d="M46.59,199c0-54.36,35.28-95.4,90.72-95.4,55.08,0,90.36,40.68,90.36,95.4s-38.88,95.4-90.36,95.4C85.47,294.41,46.59,253.73,46.59,199Zm141.12,0c0-34.92-17.28-65.88-50-65.88-33.48,0-51.12,31-51.12,65.88,0,31.68,17.28,65.88,50.76,65.88C170.07,264.89,187.71,230.69,187.71,199Z"/><path class="b0f348d7-8534-4c4f-aafc-f391132c2368" d="M211.11,645.65c0,10.44-1.8,21.6-5.4,33.84l-34.92,5.4a130.81,130.81,0,0,0,3.6-28.8c0-16.2-4.32-31.32-18.72-31.32-24.84,0-36,63.36-36,101.16V781H80.79V601h36.72v55.8h1.8c4.32-28.8,17.64-61.2,50.76-61.2C196,595.61,211.11,615.41,211.11,645.65Z"/></g><path class="b0f348d7-8534-4c4f-aafc-f391132c2368" d="M25.65,62.89c3.67,5.91,7.7,7.93,13.68,7.93,8.78,0,10.94-4.47,10.94-7.78,0-3.82-3.38-5.91-12-7.27-11.95-2-18.65-5.76-18.65-15.05,0-9.8,8.57-15.2,17.79-15.2,6,0,16.34,1.08,19.37,11l-6.92,3.39a13.51,13.51,0,0,0-12.45-7.35c-5.33,0-9.94,2.38-9.94,6.91,0,8.21,9.15,7.71,17.57,9.72C53,51.09,58.48,55.41,58.48,63c0,9.29-7.92,15.12-20.16,15.12A21.14,21.14,0,0,1,18.66,66Z"/><path class="b0f348d7-8534-4c4f-aafc-f391132c2368" d="M66.18,35.39V26.6h8.07v8.79ZM66.33,77V41.08H74.1V77Z"/><path class="b0f348d7-8534-4c4f-aafc-f391132c2368" d="M109.46,49.93a24,24,0,0,1-1.08,6.77l-7,1.08a26.13,26.13,0,0,0,.72-5.76c0-3.24-.86-6.26-3.74-6.26-5,0-7.2,12.67-7.2,20.23V77H83.39V41h7.35V52.17h.36c.86-5.76,3.52-12.24,10.15-12.24C106.43,39.93,109.46,43.89,109.46,49.93Z"/><path class="b0f348d7-8534-4c4f-aafc-f391132c2368" d="M115.14,35.39V26.6h8.07v8.79ZM115.29,77V41.08h7.77V77Z"/><path class="b0f348d7-8534-4c4f-aafc-f391132c2368" d="M132.35,61.24V41h7.78V58.5c0,8.86,2.16,13.32,6.48,13.32,7,0,9.36-11.37,9.36-21.81V41h7.78V77h-7.49V66.57h-.36c-1.59,6.12-5.12,11.52-12,11.52C135.73,78.09,132.35,70.38,132.35,61.24Z"/><path class="b0f348d7-8534-4c4f-aafc-f391132c2368" d="M176.13,66.71c1.94,6.77,16.77,7.56,16.77.79,0-1.8-.93-3.81-5.83-4.75l-5.11-1c-5.47-1.08-11.74-4.32-11.74-10.8,0-6.12,5.62-11,13.75-11,5.26,0,12.89,2.16,14.55,8.28L192.33,50c-.22-3.24-4.61-4.54-8.21-4.54-4,0-7.06,1.51-7.06,5,0,9,23.4,2.52,23.4,16.92,0,5.62-4.17,10.73-14.47,10.73-8.28,0-13.9-2-16.27-9.29Z"/><path class="b0f348d7-8534-4c4f-aafc-f391132c2368" d="M322.37,128.34c-1.29,14.91-10.37,21.75-19.73,21.75-12.45,0-22.61-11.23-22.61-26,0-14.61,10.08-26.57,22.54-26.57,9.43,0,18.58,6.7,18.58,17.72l-6.63,2.09c-.72-7.49-5.83-12.68-11.95-12.68-8.28,0-14,8.28-14,19.44,0,11.31,5.69,18.87,14,18.87,6.27,0,11.23-4.32,12.39-14.62Z"/><path class="b0f348d7-8534-4c4f-aafc-f391132c2368" d="M328.92,126.76a10.45,10.45,0,0,1-.86-4.11c0-5.9,5-10.72,14.18-10.72,9,0,13.83,3.38,13.83,9.64v16.78c0,5.26,3,6.41,5.69,6.12v4.25a14.66,14.66,0,0,1-5,.94c-4,0-7.13-3.1-7.13-8.28v-.08h-.22c-1.37,6.41-7.49,8.79-11.88,8.79-5.91,0-10.59-4-10.59-9.94,0-5.76,4.83-9.94,10.23-11,7.27-1.44,11.23-.93,11.23-6.4v-1.16c0-3.38-3-4.32-5.9-4.32-4.25,0-7.56,1.59-7.56,6.12a9.11,9.11,0,0,0,.29,2.24Zm19.73,7.34v-3.17c-.43.51-2.09,1.23-7.49,2.24-4.68.86-6.05,3-6.05,5.83,0,3,1.52,5.33,4.68,5.33C346.06,144.33,348.65,139.5,348.65,134.1Z"/><path class="b0f348d7-8534-4c4f-aafc-f391132c2368" d="M399.91,128.77V149h-7.77v-17.5c0-8.86-2.16-13.32-6.48-13.32-7.06,0-9.36,11.38-9.36,21.82v9h-7.78V113H376v11.16h.36c1.58-6.12,5.11-12.24,11.95-12.24C396.53,111.93,399.91,119.63,399.91,128.77Z"/><path class="b0f348d7-8534-4c4f-aafc-f391132c2368" d="M406.68,131c0-10.88,7.06-19.08,18.14-19.08S442.9,120.06,442.9,131s-7.78,19.08-18.08,19.08S406.68,142,406.68,131Zm28.23,0c0-7-3.46-13.18-10-13.18S414.67,124,414.67,131c0,6.33,3.46,13.17,10.15,13.17S434.91,137.34,434.91,131Z"/><path class="b0f348d7-8534-4c4f-aafc-f391132c2368" d="M483.87,130.72c0,10.51-7.28,19.37-15.34,19.37-6.27,0-9.36-6-10.51-8.43h-.22v21.75H450V113h7.28v9.07h.21c1.15-5.76,6.05-10.15,11.45-10.15C477.89,111.93,483.87,120.49,483.87,130.72Zm-8.14,0c0-7.06-2.67-12.89-8.79-12.89-5.54,0-9.28,6.41-9.28,13.46,0,10,5.54,13.4,9.28,13.4C472.42,144.69,475.73,137.63,475.73,130.72Z"/><path class="b0f348d7-8534-4c4f-aafc-f391132c2368" d="M491,133.24V113h7.78V130.5c0,8.86,2.16,13.32,6.48,13.32,7,0,9.36-11.37,9.36-21.81v-9h7.77v36H514.9V138.57h-.36c-1.59,6.12-5.12,11.52-12,11.52C494.37,150.09,491,142.38,491,133.24Z"/><path class="b0f348d7-8534-4c4f-aafc-f391132c2368" d="M534.77,138.71c1.94,6.77,16.77,7.56,16.77.79,0-1.8-.93-3.81-5.83-4.75l-5.11-1c-5.48-1.08-11.74-4.32-11.74-10.8,0-6.12,5.62-11,13.75-11,5.26,0,12.89,2.16,14.55,8.28L551,122c-.22-3.24-4.61-4.54-8.21-4.54-4,0-7.06,1.51-7.06,5,0,9,23.4,2.52,23.4,16.92,0,5.62-4.17,10.73-14.47,10.73-8.28,0-13.9-2-16.27-9.29Z"/><path class="b0f348d7-8534-4c4f-aafc-f391132c2368" d="M314.24,221H306l-4.54-13.9H284.86L280.32,221H273l17.28-50.41H297Zm-15-20.67-6.12-18.5-6.05,18.5Z"/><path class="b0f348d7-8534-4c4f-aafc-f391132c2368" d="M345,193.93a24,24,0,0,1-1.08,6.77l-7,1.08a26.13,26.13,0,0,0,.72-5.76c0-3.24-.86-6.26-3.74-6.26-5,0-7.2,12.67-7.2,20.23v11h-7.78V185h7.35v11.16h.36c.86-5.76,3.53-12.24,10.15-12.24C342,183.93,345,187.89,345,193.93Z"/><path class="b0f348d7-8534-4c4f-aafc-f391132c2368" d="M382.06,205.81c0,11.24-6.41,16.28-15.56,16.28-10.65,0-17.92-7.85-17.92-19.08s7.27-19.08,17.92-19.08c9.22,0,16.06,6.55,13.76,15.12l-7,.64c.8-5.9-.86-9.79-6.69-9.79-7.2,0-9.65,5.83-9.65,13.11s3.74,13.39,9.57,13.39c5.62,0,8.57-2.81,8.57-11.09Z"/><path class="b0f348d7-8534-4c4f-aafc-f391132c2368" d="M411.58,215.1v5.84a20.47,20.47,0,0,1-7.35,1.15c-8.85,0-11.16-4.18-11.16-10.08V190.48h-7.34V185h7.34V174.2h7.78V185h8.78v5.47h-8.78v18.14c0,5.4.72,7.28,5.4,7.28A23.08,23.08,0,0,0,411.58,215.1Z"/><path class="b0f348d7-8534-4c4f-aafc-f391132c2368" d="M418.7,205.24V185h7.78V202.5c0,8.86,2.16,13.32,6.48,13.32,7.06,0,9.36-11.37,9.36-21.81v-9h7.78v36h-7.49V210.57h-.36c-1.58,6.12-5.11,11.52-11.95,11.52C422.09,222.09,418.7,214.38,418.7,205.24Z"/><path class="b0f348d7-8534-4c4f-aafc-f391132c2368" d="M485.3,193.93a24,24,0,0,1-1.08,6.77l-7,1.08A26.13,26.13,0,0,0,478,196c0-3.24-.86-6.26-3.74-6.26-5,0-7.2,12.67-7.2,20.23v11h-7.78V185h7.34v11.16h.36c.87-5.76,3.53-12.24,10.16-12.24C482.28,183.93,485.3,187.89,485.3,193.93Z"/><path class="b0f348d7-8534-4c4f-aafc-f391132c2368" d="M491,205.24V185h7.78V202.5c0,8.86,2.16,13.32,6.48,13.32,7,0,9.36-11.37,9.36-21.81v-9h7.77v36H514.9V210.57h-.36c-1.59,6.12-5.12,11.52-12,11.52C494.37,222.09,491,214.38,491,205.24Z"/><path class="b0f348d7-8534-4c4f-aafc-f391132c2368" d="M534.77,210.71c1.94,6.77,16.77,7.56,16.77.79,0-1.8-.93-3.81-5.83-4.75l-5.11-1c-5.48-1.08-11.74-4.32-11.74-10.8,0-6.12,5.62-11,13.75-11,5.26,0,12.89,2.16,14.55,8.28L551,194c-.22-3.24-4.61-4.54-8.21-4.54-4,0-7.06,1.51-7.06,5,0,9,23.4,2.52,23.4,16.92,0,5.62-4.17,10.73-14.47,10.73-8.28,0-13.9-2-16.27-9.29Z"/><path class="b0f348d7-8534-4c4f-aafc-f391132c2368" d="M17.3,314.6h8.28l13.25,39.32h.79L53.37,314.6h8.21L43.43,365H34.94Z"/><path class="b0f348d7-8534-4c4f-aafc-f391132c2368" d="M96.57,352.26c0,8.36-7.2,13.83-15.48,13.83-11.52,0-16.92-7.13-16.92-19.08,0-13.11,9-19.08,16.2-19.08,12.74,0,16.2,9.43,16.2,20.3H72.23v.07c0,8.14,3.31,12,8.72,12,4.6,0,8.56-2.81,8.56-8.72Zm-24.34-9.57H88.29c0-6.12-2.66-9.72-7.92-9.72S72.3,337.57,72.23,342.69Z"/><path class="b0f348d7-8534-4c4f-aafc-f391132c2368" d="M138.91,367.67c0,7.92-5.55,12.82-18.87,12.82-14.33,0-18.79-4.68-18.79-9.58,0-2.88,2.88-6.55,7.41-6.55V364c-2.59,0-6.76-2.81-6.76-7.63,0-3.39,2.44-6.2,6.76-7.56a11.51,11.51,0,0,1-4.1-8.57c0-6.77,6.62-12.31,14.83-12.31a18.29,18.29,0,0,1,5.69,1l3.6-8.78h6.84v.93L129,331a11.73,11.73,0,0,1,5.11,9.29c0,6.84-6.62,12.31-14.76,12.31a17.22,17.22,0,0,1-7.27-1.58,3.32,3.32,0,0,0-3.38,3.6c0,2.66,3.67,2.95,4.39,2.95s3.89-.14,12.53-.14C132.14,357.38,138.91,361.19,138.91,367.67Zm-17,7c7.85,0,10.37-2.38,10.37-5,0-2.81-2.3-4.68-10.15-4.68h-6c-4,0-7.27,1.87-7.27,5.11s3,4.61,8.28,4.61Zm-9.72-34.49a7.28,7.28,0,1,0,7.28-7.28A7.25,7.25,0,0,0,112.19,340.17Z"/><path class="b0f348d7-8534-4c4f-aafc-f391132c2368" d="M145.24,342.76a10.47,10.47,0,0,1-.87-4.11c0-5.9,5-10.72,14.19-10.72,9,0,13.83,3.38,13.83,9.64v16.78c0,5.26,3,6.41,5.68,6.12v4.25a14.61,14.61,0,0,1-5,.94c-4,0-7.13-3.1-7.13-8.28v-.08h-.21c-1.37,6.41-7.49,8.79-11.88,8.79-5.91,0-10.59-4-10.59-9.94,0-5.76,4.83-9.94,10.23-11,7.27-1.44,11.23-.93,11.23-6.4v-1.16c0-3.38-3-4.32-5.9-4.32-4.25,0-7.56,1.59-7.56,6.12a9.67,9.67,0,0,0,.28,2.24ZM165,350.1v-3.17c-.43.51-2.09,1.23-7.49,2.24-4.68.86-6,3-6,5.83,0,3,1.51,5.33,4.68,5.33C162.38,360.33,165,355.5,165,350.1Z"/><path class="b0f348d7-8534-4c4f-aafc-f391132c2368" d="M62.08,416.34c-1.29,14.91-10.37,21.75-19.73,21.75-12.45,0-22.61-11.24-22.61-26,0-14.61,10.08-26.57,22.54-26.57,9.43,0,18.58,6.7,18.58,17.72l-6.63,2.09c-.71-7.49-5.83-12.68-11.95-12.68-8.28,0-14,8.28-14,19.44,0,11.31,5.69,18.87,14,18.87,6.27,0,11.24-4.32,12.39-14.62Z"/><path class="b0f348d7-8534-4c4f-aafc-f391132c2368" d="M99.74,424.26c0,8.36-7.2,13.83-15.48,13.83-11.52,0-16.93-7.13-16.93-19.08,0-13.11,9-19.08,16.21-19.08,12.74,0,16.2,9.43,16.2,20.3H75.4v.07c0,8.14,3.31,12,8.71,12,4.61,0,8.57-2.81,8.57-8.72ZM75.4,414.69H91.46c0-6.12-2.67-9.72-7.92-9.72S75.47,409.57,75.4,414.69Z"/><path class="b0f348d7-8534-4c4f-aafc-f391132c2368" d="M137.9,416.77V437h-7.78v-17.5c0-8.86-2.16-13.32-6.48-13.32-7.06,0-9.36,11.38-9.36,21.82v9H106.5V401H114v11.16h.36c1.59-6.12,5.11-12.24,12-12.24C134.51,399.93,137.9,407.63,137.9,416.77Z"/><path class="b0f348d7-8534-4c4f-aafc-f391132c2368" d="M169.5,431.1v5.84a20.41,20.41,0,0,1-7.34,1.15c-8.86,0-11.16-4.18-11.16-10.08V406.48h-7.35V401H151V390.2h7.78V401h8.78v5.47h-8.78v18.14c0,5.4.72,7.28,5.4,7.28A23,23,0,0,0,169.5,431.1Z"/><path class="b0f348d7-8534-4c4f-aafc-f391132c2368" d="M175.84,414.76a10.47,10.47,0,0,1-.87-4.11c0-5.9,5-10.72,14.19-10.72,9,0,13.82,3.38,13.82,9.64v16.78c0,5.26,3,6.41,5.69,6.12v4.25a14.61,14.61,0,0,1-5,.94c-4,0-7.13-3.1-7.13-8.28v-.08h-.21c-1.37,6.41-7.49,8.79-11.88,8.79-5.91,0-10.59-4-10.59-9.94,0-5.76,4.83-9.94,10.23-11,7.27-1.44,11.23-.93,11.23-6.4v-1.16c0-3.38-3-4.32-5.9-4.32-4.25,0-7.57,1.59-7.57,6.12a9.61,9.61,0,0,0,.29,2.24Zm19.73,7.34v-3.17c-.43.51-2.09,1.23-7.49,2.24-4.68.86-6.05,3-6.05,5.83,0,3,1.51,5.33,4.68,5.33C193,432.33,195.57,427.5,195.57,422.1Z"/><path class="b0f348d7-8534-4c4f-aafc-f391132c2368" d="M215.44,421.24V401h7.77V418.5c0,8.86,2.16,13.32,6.48,13.32,7.06,0,9.37-11.37,9.37-21.81v-9h7.77v36h-7.49V426.57H239c-1.58,6.12-5.11,11.52-11.95,11.52C218.82,438.09,215.44,430.38,215.44,421.24Z"/><path class="b0f348d7-8534-4c4f-aafc-f391132c2368" d="M282,409.93A24,24,0,0,1,281,416.7l-7,1.08a26.13,26.13,0,0,0,.72-5.76c0-3.24-.86-6.26-3.74-6.26-5,0-7.2,12.67-7.2,20.23v11H256V401h7.35v11.16h.36c.86-5.76,3.53-12.24,10.15-12.24C279,399.93,282,403.89,282,409.93Z"/><path class="b0f348d7-8534-4c4f-aafc-f391132c2368" d="M287.72,395.39V386.6h8.07v8.79Zm.15,41.62V401.08h7.77V437Z"/><path class="b0f348d7-8534-4c4f-aafc-f391132c2368" d="M60.07,509h-9.8s-1.65-4.18-1.65-12.53c0-6.27-2.95-8.93-8-8.93H30.54V509h-8V458.6H41.13c10.37,0,16.2,5.69,16.2,14,0,6.27-3.45,10.73-10.58,11.81v.29c4.1.72,9.72,2.38,9.72,10a41.18,41.18,0,0,0,1.87,11.38,4,4,0,0,0,1.73,2.37Zm-19.8-43.28H30.54v14.84h9.73c5.68,0,9-2.31,9-7.42C49.27,468.54,45.81,465.73,40.27,465.73Z"/><path class="b0f348d7-8534-4c4f-aafc-f391132c2368" d="M66.76,467.39V458.6h8.07v8.79ZM66.9,509V473.08h7.78V509Z"/><path class="b0f348d7-8534-4c4f-aafc-f391132c2368" d="M119.54,511.67c0,7.92-5.55,12.82-18.87,12.82-14.33,0-18.79-4.68-18.79-9.58,0-2.88,2.88-6.55,7.42-6.55V508c-2.6,0-6.77-2.81-6.77-7.63,0-3.39,2.45-6.19,6.77-7.56a11.52,11.52,0,0,1-4.11-8.57c0-6.77,6.63-12.31,14.84-12.31a18.23,18.23,0,0,1,5.68,1l3.6-8.78h6.84v.93L109.67,475a11.74,11.74,0,0,1,5.12,9.29c0,6.84-6.63,12.31-14.76,12.31A17.23,17.23,0,0,1,92.75,495a3.33,3.33,0,0,0-3.38,3.6c0,2.66,3.67,2.95,4.39,2.95s3.89-.14,12.53-.14C112.77,501.38,119.54,505.19,119.54,511.67Zm-17,7c7.84,0,10.36-2.38,10.36-5,0-2.81-2.3-4.68-10.15-4.68h-6c-4,0-7.27,1.87-7.27,5.11s3,4.61,8.28,4.61Zm-9.73-34.49a7.28,7.28,0,1,0,7.28-7.28A7.25,7.25,0,0,0,92.82,484.17Z"/><path class="b0f348d7-8534-4c4f-aafc-f391132c2368" d="M157,496.26c0,8.36-7.2,13.83-15.48,13.83-11.52,0-16.93-7.13-16.93-19.08,0-13.11,9-19.08,16.21-19.08,12.74,0,16.2,9.43,16.2,20.3H132.64v.07c0,8.14,3.31,12,8.71,12,4.61,0,8.57-2.81,8.57-8.72Zm-24.34-9.57H148.7c0-6.12-2.67-9.72-7.92-9.72S132.71,481.57,132.64,486.69Z"/><path class="b0f348d7-8534-4c4f-aafc-f391132c2368" d="M163.74,509V458.6h7.78V509Z"/><path class="b0f348d7-8534-4c4f-aafc-f391132c2368" d="M295.66,586.6h19.8a15.05,15.05,0,1,1,0,30.1H303.65V637h-8Zm8,7v16.13h11.23a7.34,7.34,0,0,0,7.71-7.71c0-4.46-3-8.42-7.71-8.42Z"/><path class="b0f348d7-8534-4c4f-aafc-f391132c2368" d="M363.41,609.93a24,24,0,0,1-1.08,6.77l-7,1.08a26.13,26.13,0,0,0,.72-5.76c0-3.24-.86-6.26-3.74-6.26-5,0-7.2,12.67-7.2,20.23v11h-7.78V601h7.35v11.16h.36c.86-5.76,3.53-12.24,10.15-12.24C360.38,599.93,363.41,603.89,363.41,609.93Z"/><path class="b0f348d7-8534-4c4f-aafc-f391132c2368" d="M367,619c0-10.88,7.05-19.08,18.14-19.08s18.08,8.13,18.08,19.08-7.78,19.08-18.08,19.08S367,630,367,619Zm28.22,0c0-7-3.45-13.18-10-13.18S375,612,375,619c0,6.33,3.46,13.17,10.15,13.17S395.23,625.34,395.23,619Z"/><path class="b0f348d7-8534-4c4f-aafc-f391132c2368" d="M441.75,621.81c0,11.24-6.41,16.28-15.56,16.28-10.65,0-17.93-7.85-17.93-19.08s7.28-19.08,17.93-19.08c9.22,0,16.06,6.55,13.76,15.12l-7,.64c.79-5.9-.86-9.79-6.7-9.79-7.2,0-9.64,5.83-9.64,13.11s3.74,13.39,9.57,13.39c5.62,0,8.57-2.81,8.57-11.09Z"/><path class="b0f348d7-8534-4c4f-aafc-f391132c2368" d="M463.06,628.8,471.48,601H479l-13.54,42c-2.59,7.92-6.05,9.14-11.09,9.14-6,0-9.29-4.25-9.29-7.85a11.13,11.13,0,0,1,.72-4.68l5.84-.72.21.29a13.35,13.35,0,0,0-.72,3.67c0,1.8,1,3.46,3,3.46s3.31-.94,6.12-9.22L444.84,601h7.92Z"/><path class="b0f348d7-8534-4c4f-aafc-f391132c2368" d="M482.28,619c0-10.88,7.05-19.08,18.14-19.08S518.5,608.06,518.5,619s-7.78,19.08-18.08,19.08S482.28,630,482.28,619Zm28.22,0c0-7-3.45-13.18-10-13.18S490.27,612,490.27,619c0,6.33,3.46,13.17,10.15,13.17S510.5,625.34,510.5,619Z"/><path class="b0f348d7-8534-4c4f-aafc-f391132c2368" d="M557,616.77V637h-7.78v-17.5c0-8.86-2.16-13.32-6.48-13.32-7.06,0-9.36,11.38-9.36,21.82v9h-7.78V601h7.49v11.16h.36c1.58-6.12,5.11-12.24,11.95-12.24C553.63,599.93,557,607.63,557,616.77Z"/><path class="b0f348d7-8534-4c4f-aafc-f391132c2368" d="M303.15,709h-8.21l-4.54-13.9H273.77L269.23,709h-7.34l17.28-50.41h6.7Zm-15-20.67-6.12-18.5L276,688.34Z"/><path class="b0f348d7-8534-4c4f-aafc-f391132c2368" d="M339.22,693.81c0,11.24-6.41,16.28-15.55,16.28-10.66,0-17.93-7.85-17.93-19.08s7.27-19.08,17.93-19.08c9.21,0,16.05,6.55,13.75,15.12l-7,.64c.8-5.9-.86-9.79-6.69-9.79-7.2,0-9.65,5.83-9.65,13.11s3.74,13.39,9.58,13.39c5.61,0,8.56-2.81,8.56-11.09Z"/><path class="b0f348d7-8534-4c4f-aafc-f391132c2368" d="M377.38,688.77V709H369.6v-17.5c0-8.86-2.16-13.32-6.48-13.32-7.06,0-9.36,11.38-9.36,21.82v9H346V658.6h7.49v25.57h.36c1.59-6.12,5.11-12.24,12-12.24C374,671.93,377.38,679.63,377.38,688.77Z"/><path class="b0f348d7-8534-4c4f-aafc-f391132c2368" d="M416.55,696.26c0,8.36-7.21,13.83-15.49,13.83-11.52,0-16.92-7.13-16.92-19.08,0-13.11,9-19.08,16.2-19.08,12.75,0,16.21,9.43,16.21,20.3H392.21v.07c0,8.14,3.31,12,8.71,12,4.61,0,8.57-2.81,8.57-8.72Zm-24.34-9.57h16.05c0-6.12-2.66-9.72-7.92-9.72S392.28,681.57,392.21,686.69Z"/><path class="b0f348d7-8534-4c4f-aafc-f391132c2368" d="M449.38,681.93a24,24,0,0,1-1.08,6.77l-7,1.08A26.13,26.13,0,0,0,442,684c0-3.24-.86-6.26-3.74-6.26-5,0-7.2,12.67-7.2,20.23v11h-7.78V673h7.35v11.16H431c.86-5.76,3.52-12.24,10.15-12.24C446.35,671.93,449.38,675.89,449.38,681.93Z"/><path class="b0f348d7-8534-4c4f-aafc-f391132c2368" d="M486.46,688.77V709h-7.78v-17.5c0-8.86-2.16-13.32-6.48-13.32-7.06,0-9.36,11.38-9.36,21.82v9h-7.78V673h7.49v11.16h.36c1.59-6.12,5.11-12.24,11.95-12.24C483.07,671.93,486.46,679.63,486.46,688.77Z"/><path class="b0f348d7-8534-4c4f-aafc-f391132c2368" d="M494.52,686.76a10.47,10.47,0,0,1-.87-4.11c0-5.9,5-10.72,14.19-10.72,9,0,13.82,3.38,13.82,9.64v16.78c0,5.26,3,6.41,5.69,6.12v4.25a14.61,14.61,0,0,1-5,.94c-4,0-7.13-3.1-7.13-8.28v-.08H515c-1.37,6.41-7.49,8.79-11.88,8.79-5.91,0-10.59-4-10.59-9.94,0-5.76,4.83-9.94,10.23-11,7.27-1.44,11.23-.93,11.23-6.4v-1.16c0-3.38-3-4.32-5.91-4.32-4.24,0-7.56,1.59-7.56,6.12a9.61,9.61,0,0,0,.29,2.24Zm19.73,7.34v-3.17c-.44.51-2.09,1.23-7.49,2.24-4.68.86-6.05,3-6.05,5.83,0,3,1.51,5.33,4.68,5.33C511.65,704.33,514.25,699.5,514.25,694.1Z"/><path class="b0f348d7-8534-4c4f-aafc-f391132c2368" d="M560.18,681.93a24,24,0,0,1-1.08,6.77l-7,1.08a26.13,26.13,0,0,0,.72-5.76c0-3.24-.87-6.26-3.75-6.26-5,0-7.2,12.67-7.2,20.23v11h-7.77V673h7.34v11.16h.36c.87-5.76,3.53-12.24,10.15-12.24C557.16,671.93,560.18,675.89,560.18,681.93Z"/><path class="b0f348d7-8534-4c4f-aafc-f391132c2368" d="M236.55,755.09c5.47,1.94,9.93,5.68,9.93,11.73A14.31,14.31,0,0,1,232.08,781H208.32V730.6h21.46c8.64,0,15.26,6.12,15.26,13.18,0,4.68-3.81,9.36-8.49,10.8Zm-7.71-17.5H216.31v13.9h12.61c4.53,0,7.63-3.1,7.63-7S233.45,737.59,228.84,737.59Zm-12.53,20.88v15.41h11c5.11,0,10.59-.94,10.59-7.56s-4.47-7.85-10.59-7.85Z"/><path class="b0f348d7-8534-4c4f-aafc-f391132c2368" d="M283.49,768.26c0,8.36-7.2,13.83-15.48,13.83-11.52,0-16.92-7.13-16.92-19.08,0-13.11,9-19.08,16.2-19.08,12.74,0,16.2,9.43,16.2,20.3H259.15v.07c0,8.14,3.31,12,8.72,12,4.6,0,8.56-2.81,8.56-8.72Zm-24.34-9.57h16.06c0-6.12-2.66-9.72-7.92-9.72S259.22,753.57,259.15,758.69Z"/><path class="b0f348d7-8534-4c4f-aafc-f391132c2368" d="M313,775.1v5.84a20.45,20.45,0,0,1-7.34,1.15c-8.86,0-11.17-4.18-11.17-10.08V750.48h-7.34V745h7.34V734.2h7.78V745h8.79v5.47h-8.79v18.14c0,5.4.72,7.28,5.4,7.28A23.08,23.08,0,0,0,313,775.1Z"/><path class="b0f348d7-8534-4c4f-aafc-f391132c2368" d="M350.45,768.26c0,8.36-7.2,13.83-15.48,13.83-11.52,0-16.92-7.13-16.92-19.08,0-13.11,9-19.08,16.2-19.08,12.74,0,16.2,9.43,16.2,20.3H326.11v.07c0,8.14,3.31,12,8.72,12,4.6,0,8.56-2.81,8.56-8.72Zm-24.34-9.57h16.06c0-6.12-2.66-9.72-7.92-9.72S326.18,753.57,326.11,758.69Z"/><path class="b0f348d7-8534-4c4f-aafc-f391132c2368" d="M357.22,781V730.6H365V781Z"/><path class="b0f348d7-8534-4c4f-aafc-f391132c2368" d="M409.71,783.67c0,7.92-5.55,12.82-18.87,12.82-14.33,0-18.79-4.68-18.79-9.58,0-2.88,2.88-6.55,7.41-6.55V780c-2.59,0-6.77-2.81-6.77-7.63,0-3.39,2.45-6.19,6.77-7.56a11.51,11.51,0,0,1-4.1-8.57c0-6.77,6.62-12.31,14.83-12.31a18.29,18.29,0,0,1,5.69,1l3.6-8.78h6.84v.93L399.84,747a11.73,11.73,0,0,1,5.11,9.29c0,6.84-6.62,12.31-14.76,12.31a17.22,17.22,0,0,1-7.27-1.58,3.32,3.32,0,0,0-3.38,3.6c0,2.66,3.67,2.95,4.39,2.95s3.89-.14,12.53-.14C402.94,773.38,409.71,777.19,409.71,783.67Zm-17,7c7.85,0,10.37-2.38,10.37-5,0-2.81-2.3-4.68-10.15-4.68h-6c-4,0-7.27,1.87-7.27,5.11s3,4.61,8.28,4.61ZM383,756.17a7.28,7.28,0,1,0,7.27-7.28A7.25,7.25,0,0,0,383,756.17Z"/><path class="b0f348d7-8534-4c4f-aafc-f391132c2368" d="M447.14,768.26c0,8.36-7.2,13.83-15.48,13.83-11.52,0-16.92-7.13-16.92-19.08,0-13.11,9-19.08,16.2-19.08,12.75,0,16.2,9.43,16.2,20.3H422.81v.07c0,8.14,3.31,12,8.71,12,4.61,0,8.57-2.81,8.57-8.72Zm-24.33-9.57h16.05c0-6.12-2.66-9.72-7.92-9.72S422.88,753.57,422.81,758.69Z"/><path class="b0f348d7-8534-4c4f-aafc-f391132c2368" d="M453.91,765.24V745h7.78V762.5c0,8.86,2.16,13.32,6.48,13.32,7.05,0,9.36-11.37,9.36-21.81v-9h7.77v36h-7.48V770.57h-.36c-1.59,6.12-5.12,11.52-12,11.52C457.29,782.09,453.91,774.38,453.91,765.24Z"/><path class="b0f348d7-8534-4c4f-aafc-f391132c2368" d="M497.69,770.71c1.94,6.77,16.77,7.56,16.77.79,0-1.8-.93-3.81-5.83-4.75l-5.11-1c-5.48-1.08-11.74-4.32-11.74-10.8,0-6.12,5.62-11,13.75-11,5.26,0,12.89,2.16,14.55,8.28l-6.19,1.8c-.22-3.24-4.61-4.54-8.21-4.54-4,0-7.06,1.51-7.06,5,0,9,23.4,2.52,23.4,16.92,0,5.62-4.17,10.73-14.47,10.73-8.28,0-13.9-2-16.27-9.29Z"/><path class="b0f348d7-8534-4c4f-aafc-f391132c2368" d="M559.1,768.26c0,8.36-7.2,13.83-15.48,13.83-11.52,0-16.92-7.13-16.92-19.08,0-13.11,9-19.08,16.2-19.08,12.75,0,16.2,9.43,16.2,20.3H534.76v.07c0,8.14,3.32,12,8.72,12,4.61,0,8.57-2.81,8.57-8.72Zm-24.34-9.57h16.06c0-6.12-2.66-9.72-7.92-9.72S534.84,753.57,534.76,758.69Z"/><path class="b0f348d7-8534-4c4f-aafc-f391132c2368" d="M1019.9,26.6h19.8a15.05,15.05,0,1,1,0,30.1h-11.81V77h-8Zm8,7V49.72h11.23a7.34,7.34,0,0,0,7.71-7.71c0-4.46-3-8.42-7.71-8.42Z"/><path class="b0f348d7-8534-4c4f-aafc-f391132c2368" d="M1060.79,54.76a10.63,10.63,0,0,1-.86-4.11c0-5.9,5-10.72,14.19-10.72,9,0,13.82,3.38,13.82,9.64V66.35c0,5.26,3,6.41,5.69,6.12v4.25a14.66,14.66,0,0,1-5,.94c-4,0-7.13-3.1-7.13-8.28V69.3h-.22c-1.36,6.41-7.49,8.79-11.88,8.79-5.9,0-10.58-4-10.58-9.94,0-5.76,4.82-9.94,10.22-11,7.28-1.44,11.24-.93,11.24-6.4V49.57c0-3.38-3-4.32-5.91-4.32-4.25,0-7.56,1.59-7.56,6.12a9.11,9.11,0,0,0,.29,2.24Zm19.73,7.34V58.93c-.43.51-2.08,1.23-7.48,2.24-4.69.86-6,3-6,5.83,0,3,1.51,5.33,4.68,5.33C1077.93,72.33,1080.52,67.5,1080.52,62.1Z"/><path class="b0f348d7-8534-4c4f-aafc-f391132c2368" d="M1114.58,70.74,1124,41h7.49l-12.31,36h-9.51l-13-36h7.92Z"/><path class="b0f348d7-8534-4c4f-aafc-f391132c2368" d="M1134.81,59c0-10.88,7-19.08,18.14-19.08S1171,48.06,1171,59s-7.78,19.08-18.08,19.08S1134.81,70,1134.81,59ZM1163,59c0-7-3.45-13.18-10-13.18-6.7,0-10.23,6.19-10.23,13.18,0,6.33,3.46,13.17,10.15,13.17S1163,65.34,1163,59Z"/><path class="b0f348d7-8534-4c4f-aafc-f391132c2368" d="M995.27,123.81c0-15.7,9-26.29,22.54-26.29s22.54,10.59,22.54,26.29-9.07,26.28-22.54,26.28S995.27,139.65,995.27,123.81Zm36.51,0c0-11.17-5.69-19.16-14-19.16s-14,8-14,19.16,5.69,19.15,14,19.15S1031.78,135.11,1031.78,123.81Z"/><path class="b0f348d7-8534-4c4f-aafc-f391132c2368" d="M1073.76,121.93a24,24,0,0,1-1.08,6.77l-7,1.08a26.13,26.13,0,0,0,.72-5.76c0-3.24-.86-6.26-3.74-6.26-5,0-7.2,12.67-7.2,20.23v11h-7.78V113H1055v11.16h.36c.87-5.76,3.53-12.24,10.16-12.24C1070.73,111.93,1073.76,115.89,1073.76,121.93Z"/><path class="b0f348d7-8534-4c4f-aafc-f391132c2368" d="M1079.44,107.39V98.6h8.06v8.79Zm.14,41.62V113.08h7.78V149Z"/><path class="b0f348d7-8534-4c4f-aafc-f391132c2368" d="M1094.56,131c0-10.88,7.06-19.08,18.15-19.08s18.07,8.13,18.07,19.08-7.78,19.08-18.07,19.08S1094.56,142,1094.56,131Zm28.23,0c0-7-3.46-13.18-10-13.18-6.7,0-10.23,6.19-10.23,13.18,0,6.33,3.46,13.17,10.16,13.17C1119.26,144.18,1122.79,137.34,1122.79,131Z"/><path class="b0f348d7-8534-4c4f-aafc-f391132c2368" d="M1169.3,128.77V149h-7.78v-17.5c0-8.86-2.16-13.32-6.48-13.32-7,0-9.36,11.38-9.36,21.82v9h-7.78V113h7.49v11.16h.36c1.59-6.12,5.12-12.24,12-12.24C1165.92,111.93,1169.3,119.63,1169.3,128.77Z"/><path class="b0f348d7-8534-4c4f-aafc-f391132c2368" d="M971.3,198.47H953.08v15.41H979.8V221H945.09V170.6h33.77v7H953.08v13.9H971.3Z"/><path class="b0f348d7-8534-4c4f-aafc-f391132c2368" d="M1021.05,202.72c0,10.51-7.27,19.37-15.33,19.37-6.27,0-9.36-6-10.51-8.43H995v21.75h-7.78V185h7.27v9.07h.22c1.15-5.76,6-10.15,11.45-10.15C1015.08,183.93,1021.05,192.49,1021.05,202.72Zm-8.13,0c0-7.06-2.67-12.89-8.79-12.89-5.54,0-9.29,6.41-9.29,13.46,0,10,5.55,13.4,9.29,13.4C1009.61,216.69,1012.92,209.63,1012.92,202.72Z"/><path class="b0f348d7-8534-4c4f-aafc-f391132c2368" d="M1031.42,210.71c1.94,6.77,16.78,7.56,16.78.79,0-1.8-.94-3.81-5.84-4.75l-5.11-1c-5.47-1.08-11.74-4.32-11.74-10.8,0-6.12,5.62-11,13.76-11,5.25,0,12.89,2.16,14.54,8.28l-6.19,1.8c-.22-3.24-4.61-4.54-8.21-4.54-4,0-7.05,1.51-7.05,5,0,9,23.4,2.52,23.4,16.92,0,5.62-4.18,10.73-14.48,10.73-8.28,0-13.89-2-16.27-9.29Z"/><path class="b0f348d7-8534-4c4f-aafc-f391132c2368" d="M1062.52,179.39V170.6h8.07v8.79Zm.15,41.62V185.08h7.77V221Z"/><path class="b0f348d7-8534-4c4f-aafc-f391132c2368" d="M1079.73,221V170.6h7.78V221Z"/><path class="b0f348d7-8534-4c4f-aafc-f391132c2368" d="M1094.56,203c0-10.88,7.06-19.08,18.15-19.08s18.07,8.13,18.07,19.08-7.78,19.08-18.07,19.08S1094.56,214,1094.56,203Zm28.23,0c0-7-3.46-13.18-10-13.18-6.7,0-10.23,6.19-10.23,13.18,0,6.33,3.46,13.17,10.16,13.17C1119.26,216.18,1122.79,209.34,1122.79,203Z"/><path class="b0f348d7-8534-4c4f-aafc-f391132c2368" d="M1169.3,200.77V221h-7.78v-17.5c0-8.86-2.16-13.32-6.48-13.32-7,0-9.36,11.38-9.36,21.82v9h-7.78V185h7.49v11.16h.36c1.59-6.12,5.12-12.24,12-12.24C1165.92,183.93,1169.3,191.63,1169.3,200.77Z"/><path class="b0f348d7-8534-4c4f-aafc-f391132c2368" d="M671.05,314.6h12V365H675.3V323.6l-12,41.41h-10L642.11,323.6V365h-7.78V314.6H647l11.53,43.5Z"/><path class="b0f348d7-8534-4c4f-aafc-f391132c2368" d="M692.43,342.76a10.63,10.63,0,0,1-.86-4.11c0-5.9,5-10.72,14.19-10.72,9,0,13.82,3.38,13.82,9.64v16.78c0,5.26,3,6.41,5.69,6.12v4.25a14.66,14.66,0,0,1-5,.94c-4,0-7.13-3.1-7.13-8.28v-.08h-.22c-1.36,6.41-7.48,8.79-11.88,8.79-5.9,0-10.58-4-10.58-9.94,0-5.76,4.82-9.94,10.22-11,7.28-1.44,11.24-.93,11.24-6.4v-1.16c0-3.38-3-4.32-5.91-4.32-4.25,0-7.56,1.59-7.56,6.12a9.11,9.11,0,0,0,.29,2.24Zm19.73,7.34v-3.17c-.43.51-2.08,1.23-7.48,2.24-4.68.86-6,3-6,5.83,0,3,1.51,5.33,4.68,5.33C709.57,360.33,712.16,355.5,712.16,350.1Z"/><path class="b0f348d7-8534-4c4f-aafc-f391132c2368" d="M729.23,369.33l5.83-.87a10.77,10.77,0,0,0-.29,2.16c0,2.67,1.22,3.25,3,3.25,2.52,0,2.81-2.53,2.81-4.18,0-2.81-.14-3.17-.14-5V329.08h7.77v40.54c0,3,.08,10.87-9.93,10.87-7.2,0-9.29-4.83-9.29-8.93a9.16,9.16,0,0,1,.21-2.09Zm11-45.94V314.6h8.07v8.79Z"/><path class="b0f348d7-8534-4c4f-aafc-f391132c2368" d="M755.36,347c0-10.88,7.06-19.08,18.15-19.08s18.07,8.13,18.07,19.08-7.78,19.08-18.07,19.08S755.36,358,755.36,347Zm28.23,0c0-7-3.46-13.18-10-13.18-6.7,0-10.23,6.19-10.23,13.18,0,6.33,3.46,13.17,10.16,13.17C780.06,360.18,783.59,353.34,783.59,347Z"/><path class="b0f348d7-8534-4c4f-aafc-f391132c2368" d="M824.77,337.93a24,24,0,0,1-1.08,6.77l-7,1.08a26.13,26.13,0,0,0,.72-5.76c0-3.24-.87-6.26-3.75-6.26-5,0-7.2,12.67-7.2,20.23v11h-7.77V329h7.34v11.16h.36c.86-5.76,3.53-12.24,10.15-12.24C821.75,327.93,824.77,331.89,824.77,337.93Z"/><path class="b0f348d7-8534-4c4f-aafc-f391132c2368" d="M830.46,323.39V314.6h8.06v8.79ZM830.6,365V329.08h7.78V365Z"/><path class="b0f348d7-8534-4c4f-aafc-f391132c2368" d="M850.91,354.71c1.94,6.77,16.77,7.56,16.77.79,0-1.8-.93-3.81-5.83-4.75l-5.11-1c-5.47-1.08-11.74-4.32-11.74-10.8,0-6.12,5.62-11,13.75-11,5.26,0,12.89,2.16,14.55,8.28l-6.19,1.8c-.22-3.24-4.61-4.54-8.21-4.54-4,0-7.06,1.51-7.06,5,0,9,23.4,2.52,23.4,16.92,0,5.62-4.17,10.73-14.47,10.73-8.28,0-13.9-2-16.27-9.29Z"/><path class="b0f348d7-8534-4c4f-aafc-f391132c2368" d="M667.09,386.6H675v30.46c0,10.3-4,21-20.3,21-14.91,0-20.31-10.73-20.31-21V386.6H642v29.74c0,8.28,3.74,14.62,12.53,14.62s12.52-6.34,12.52-14.62Z"/><path class="b0f348d7-8534-4c4f-aafc-f391132c2368" d="M709.36,409.93a24,24,0,0,1-1.08,6.77l-7,1.08A26.13,26.13,0,0,0,702,412c0-3.24-.86-6.26-3.74-6.26-5,0-7.2,12.67-7.2,20.23v11h-7.78V401h7.35v11.16H691c.86-5.76,3.52-12.24,10.15-12.24C706.33,399.93,709.36,403.89,709.36,409.93Z"/><path class="b0f348d7-8534-4c4f-aafc-f391132c2368" d="M718.28,426.71c2,6.77,16.78,7.56,16.78.79,0-1.8-.94-3.81-5.83-4.75l-5.11-1c-5.48-1.08-11.74-4.32-11.74-10.8,0-6.12,5.61-11,13.75-11,5.26,0,12.89,2.16,14.55,8.28l-6.2,1.8c-.21-3.24-4.6-4.54-8.2-4.54-4,0-7.06,1.51-7.06,5,0,9,23.4,2.52,23.4,16.92,0,5.62-4.18,10.73-14.47,10.73-8.28,0-13.9-2-16.28-9.29Z"/><path class="b0f348d7-8534-4c4f-aafc-f391132c2368" d="M748.59,414.76a10.63,10.63,0,0,1-.86-4.11c0-5.9,5-10.72,14.19-10.72,9,0,13.82,3.38,13.82,9.64v16.78c0,5.26,3,6.41,5.69,6.12v4.25a14.66,14.66,0,0,1-5,.94c-4,0-7.13-3.1-7.13-8.28v-.08H769c-1.36,6.41-7.49,8.79-11.88,8.79-5.9,0-10.58-4-10.58-9.94,0-5.76,4.82-9.94,10.22-11,7.28-1.44,11.24-.93,11.24-6.4v-1.16c0-3.38-3-4.32-5.91-4.32-4.25,0-7.56,1.59-7.56,6.12a9.11,9.11,0,0,0,.29,2.24Zm19.73,7.34v-3.17c-.43.51-2.08,1.23-7.49,2.24-4.68.86-6,3-6,5.83,0,3,1.51,5.33,4.68,5.33C765.73,432.33,768.32,427.5,768.32,422.1Z"/><path class="b0f348d7-8534-4c4f-aafc-f391132c2368" d="M818.51,424.26c0,8.36-7.2,13.83-15.48,13.83-11.53,0-16.93-7.13-16.93-19.08,0-13.11,9-19.08,16.21-19.08,12.74,0,16.2,9.43,16.2,20.3H794.17v.07c0,8.14,3.31,12,8.71,12,4.61,0,8.57-2.81,8.57-8.72Zm-24.34-9.57h16.06c0-6.12-2.67-9.72-7.92-9.72S794.24,409.57,794.17,414.69Z"/><path class="b0f348d7-8534-4c4f-aafc-f391132c2368" d="M679.62,497.34l9.72-38.74h8.14L684.3,509h-9.5l-10.37-36.37L654.85,509h-9.29L631,458.6h8.57l10.94,40,9.87-40h8.21Z"/><path class="b0f348d7-8534-4c4f-aafc-f391132c2368" d="M733.91,496.26c0,8.36-7.2,13.83-15.48,13.83-11.52,0-16.92-7.13-16.92-19.08,0-13.11,9-19.08,16.2-19.08,12.74,0,16.2,9.43,16.2,20.3H709.57v.07c0,8.14,3.31,12,8.71,12,4.61,0,8.57-2.81,8.57-8.72Zm-24.34-9.57h16.06c0-6.12-2.67-9.72-7.92-9.72S709.64,481.57,709.57,486.69Z"/><path class="b0f348d7-8534-4c4f-aafc-f391132c2368" d="M768.54,473v5.83l-21.24,23.4h21.53V509H738.44V503L759,479.49H739.45V473Z"/><path class="b0f348d7-8534-4c4f-aafc-f391132c2368" d="M806.27,496.26c0,8.36-7.2,13.83-15.48,13.83-11.52,0-16.92-7.13-16.92-19.08,0-13.11,9-19.08,16.2-19.08,12.74,0,16.2,9.43,16.2,20.3H781.93v.07c0,8.14,3.31,12,8.71,12,4.61,0,8.57-2.81,8.57-8.72Zm-24.34-9.57H798c0-6.12-2.67-9.72-7.92-9.72S782,481.57,781.93,486.69Z"/><path class="b0f348d7-8534-4c4f-aafc-f391132c2368" d="M844.43,488.77V509h-7.78v-17.5c0-8.86-2.16-13.32-6.48-13.32-7,0-9.36,11.38-9.36,21.82v9H813V473h7.49v11.16h.36c1.59-6.12,5.12-12.24,12-12.24C841,471.93,844.43,479.63,844.43,488.77Z"/><path class="b0f348d7-8534-4c4f-aafc-f391132c2368" d="M956.18,586.6H976a15.05,15.05,0,1,1,0,30.1H964.17V637h-8Zm8,7v16.13h11.24a7.34,7.34,0,0,0,7.7-7.71c0-4.46-3-8.42-7.7-8.42Z"/><path class="b0f348d7-8534-4c4f-aafc-f391132c2368" d="M995.78,619c0-10.88,7.06-19.08,18.14-19.08S1032,608.06,1032,619s-7.78,19.08-18.08,19.08S995.78,630,995.78,619Zm28.23,0c0-7-3.46-13.18-10-13.18-6.7,0-10.23,6.19-10.23,13.18,0,6.33,3.46,13.17,10.15,13.17S1024,625.34,1024,619Z"/><path class="b0f348d7-8534-4c4f-aafc-f391132c2368" d="M1039.12,637V586.6h7.78V637Z"/><path class="b0f348d7-8534-4c4f-aafc-f391132c2368" d="M1055.25,614.76a10.45,10.45,0,0,1-.86-4.11c0-5.9,5-10.72,14.18-10.72,9,0,13.83,3.38,13.83,9.64v16.78c0,5.26,3,6.41,5.68,6.12v4.25a14.61,14.61,0,0,1-5,.94c-4,0-7.12-3.1-7.12-8.28v-.08h-.22c-1.37,6.41-7.49,8.79-11.88,8.79-5.91,0-10.59-4-10.59-9.94,0-5.76,4.83-9.94,10.23-11,7.27-1.44,11.23-.93,11.23-6.4v-1.16c0-3.38-3-4.32-5.9-4.32-4.25,0-7.56,1.59-7.56,6.12a9.67,9.67,0,0,0,.28,2.24ZM1075,622.1v-3.17c-.43.51-2.09,1.23-7.49,2.24-4.68.86-6,3-6,5.83,0,3,1.52,5.33,4.68,5.33C1072.39,632.33,1075,627.5,1075,622.1Z"/><path class="b0f348d7-8534-4c4f-aafc-f391132c2368" d="M1120.92,609.93a24,24,0,0,1-1.09,6.77l-7,1.08a26.13,26.13,0,0,0,.72-5.76c0-3.24-.86-6.26-3.74-6.26-5,0-7.21,12.67-7.21,20.23v11h-7.77V601h7.34v11.16h.36c.87-5.76,3.53-12.24,10.16-12.24C1117.89,599.93,1120.92,603.89,1120.92,609.93Z"/><path class="b0f348d7-8534-4c4f-aafc-f391132c2368" d="M1126.6,595.39V586.6h8.07v8.79Zm.14,41.62V601.08h7.78V637Z"/><path class="b0f348d7-8534-4c4f-aafc-f391132c2368" d="M1147.05,626.71c1.94,6.77,16.78,7.56,16.78.79,0-1.8-.94-3.81-5.84-4.75l-5.11-1c-5.47-1.08-11.74-4.32-11.74-10.8,0-6.12,5.62-11,13.76-11,5.25,0,12.89,2.16,14.54,8.28l-6.19,1.8c-.22-3.24-4.61-4.54-8.21-4.54-4,0-7.06,1.51-7.06,5,0,9,23.41,2.52,23.41,16.92,0,5.62-4.18,10.73-14.48,10.73-8.28,0-13.89-2-16.27-9.29Z"/><path class="b0f348d7-8534-4c4f-aafc-f391132c2368" d="M976.27,690.07v-7h20V709H991l-.65-6.7h-.58c-2.88,5.33-7.92,7.78-15,7.78-12.61,0-22.76-11.09-22.76-26s10.08-26.57,22.68-26.57c10.66,0,20.81,7.13,20.6,17.65l-7.13,2.3c0-7.63-4.83-12.82-13.47-12.82-8.35,0-14.11,8.07-14.11,19.44S966.26,703,974.61,703c10.44,0,13.68-5.9,13.68-12.89Z"/><path class="b0f348d7-8534-4c4f-aafc-f391132c2368" d="M1004.56,667.39V658.6h8.07v8.79Zm.15,41.62V673.08h7.77V709Z"/><path class="b0f348d7-8534-4c4f-aafc-f391132c2368" d="M1052.08,696.26c0,8.36-7.2,13.83-15.48,13.83-11.52,0-16.92-7.13-16.92-19.08,0-13.11,9-19.08,16.2-19.08,12.75,0,16.2,9.43,16.2,20.3h-24.33v.07c0,8.14,3.31,12,8.71,12,4.61,0,8.57-2.81,8.57-8.72Zm-24.33-9.57h16c0-6.12-2.66-9.72-7.92-9.72S1027.82,681.57,1027.75,686.69Z"/><path class="b0f348d7-8534-4c4f-aafc-f391132c2368" d="M1090.25,688.77V709h-7.78v-17.5c0-8.86-2.16-13.32-6.48-13.32-7.06,0-9.36,11.38-9.36,21.82v9h-7.78V673h7.49v11.16h.36c1.58-6.12,5.11-12.24,12-12.24C1086.86,671.93,1090.25,679.63,1090.25,688.77Z"/><path class="b0f348d7-8534-4c4f-aafc-f391132c2368" d="M1098.31,686.76a10.47,10.47,0,0,1-.87-4.11c0-5.9,5-10.72,14.19-10.72,9,0,13.82,3.38,13.82,9.64v16.78c0,5.26,3,6.41,5.69,6.12v4.25a14.61,14.61,0,0,1-5,.94c-4,0-7.13-3.1-7.13-8.28v-.08h-.22c-1.36,6.41-7.48,8.79-11.88,8.79-5.9,0-10.58-4-10.58-9.94,0-5.76,4.82-9.94,10.22-11,7.28-1.44,11.24-.93,11.24-6.4v-1.16c0-3.38-3-4.32-5.91-4.32-4.25,0-7.56,1.59-7.56,6.12a9.61,9.61,0,0,0,.29,2.24ZM1118,694.1v-3.17c-.44.51-2.09,1.23-7.49,2.24-4.68.86-6,3-6,5.83,0,3,1.51,5.33,4.68,5.33C1115.44,704.33,1118,699.5,1118,694.1Z"/><path class="b0f348d7-8534-4c4f-aafc-f391132c2368" d="M1169.3,688.77V709h-7.78v-17.5c0-8.86-2.16-13.32-6.48-13.32-7,0-9.36,11.38-9.36,21.82v9h-7.77V658.6h7.48v25.57h.36c1.59-6.12,5.12-12.24,12-12.24C1165.92,671.93,1169.3,679.63,1169.3,688.77Z"/><path class="b0f348d7-8534-4c4f-aafc-f391132c2368" d="M920.18,762.07v-7h20V781h-5.33l-.65-6.7h-.57c-2.88,5.33-7.92,7.78-15,7.78-12.6,0-22.76-11.09-22.76-26s10.08-26.57,22.69-26.57c10.65,0,20.8,7.13,20.59,17.65l-7.13,2.3c0-7.63-4.82-12.82-13.46-12.82-8.36,0-14.12,8.07-14.12,19.44S910.17,775,918.53,775c10.44,0,13.68-5.9,13.68-12.89Z"/><path class="b0f348d7-8534-4c4f-aafc-f391132c2368" d="M946.39,763c0-10.88,7.05-19.08,18.14-19.08s18.08,8.13,18.08,19.08-7.78,19.08-18.08,19.08S946.39,774,946.39,763Zm28.22,0c0-7-3.45-13.18-10-13.18S954.38,756,954.38,763c0,6.33,3.45,13.17,10.15,13.17S974.61,769.34,974.61,763Z"/><path class="b0f348d7-8534-4c4f-aafc-f391132c2368" d="M1041.86,760.77V781h-7.77v-17.5c0-8.86-2.16-13.32-5.76-13.32-7.06,0-8.64,11.38-8.64,21.82v9h-7.78v-17.5c0-8.86-2.16-13.32-5.76-13.32-7.06,0-8.64,11.38-8.64,21.82v9h-7.78V745h7.49v11.16h.36c.86-6.12,3.67-12.24,10.51-12.24,5.4,0,8.79,3.38,10.37,8.28,1.58-4.4,6-8.28,11.23-8.28C1039.34,743.93,1041.86,750.91,1041.86,760.77Z"/><path class="b0f348d7-8534-4c4f-aafc-f391132c2368" d="M1081,768.26c0,8.36-7.2,13.83-15.48,13.83-11.52,0-16.92-7.13-16.92-19.08,0-13.11,9-19.08,16.2-19.08,12.74,0,16.2,9.43,16.2,20.3h-24.34v.07c0,8.14,3.31,12,8.71,12,4.61,0,8.57-2.81,8.57-8.72Zm-24.34-9.57h16.06c0-6.12-2.67-9.72-7.92-9.72S1056.76,753.57,1056.69,758.69Z"/><path class="b0f348d7-8534-4c4f-aafc-f391132c2368" d="M1087.79,739.39V730.6h8.07v8.79Zm.15,41.62V745.08h7.77V781Z"/><path class="b0f348d7-8534-4c4f-aafc-f391132c2368" d="M1108.24,770.71c2,6.77,16.78,7.56,16.78.79,0-1.8-.94-3.81-5.83-4.75l-5.12-1c-5.47-1.08-11.73-4.32-11.73-10.8,0-6.12,5.61-11,13.75-11,5.26,0,12.89,2.16,14.54,8.28l-6.19,1.8c-.21-3.24-4.61-4.54-8.21-4.54-4,0-7,1.51-7,5,0,9,23.4,2.52,23.4,16.92,0,5.62-4.18,10.73-14.47,10.73-8.28,0-13.9-2-16.28-9.29Z"/><path class="b0f348d7-8534-4c4f-aafc-f391132c2368" d="M1138.55,758.76a10.63,10.63,0,0,1-.86-4.11c0-5.9,5-10.72,14.18-10.72,9,0,13.83,3.38,13.83,9.64v16.78c0,5.26,3,6.41,5.69,6.12v4.25a14.66,14.66,0,0,1-5,.94c-4,0-7.13-3.1-7.13-8.28v-.08H1159c-1.37,6.41-7.49,8.79-11.88,8.79-5.9,0-10.58-4-10.58-9.94,0-5.76,4.82-9.94,10.22-11,7.27-1.44,11.23-.93,11.23-6.4v-1.16c0-3.38-3-4.32-5.9-4.32-4.25,0-7.56,1.59-7.56,6.12a9.11,9.11,0,0,0,.29,2.24Zm19.73,7.34v-3.17c-.43.51-2.09,1.23-7.49,2.24-4.68.86-6,3-6,5.83,0,3,1.51,5.33,4.68,5.33C1155.69,776.33,1158.28,771.5,1158.28,766.1Z"/></svg>