<svg id="fe7ba345-899a-4c49-b4ae-bc77c931d83d" data-name="Layer 1" xmlns="http://www.w3.org/2000/svg" viewBox="0 0 980 979.9"><defs><style>.a8884f62-3f22-4e3e-9c98-88000536276c{fill:#f8ef6c;}</style></defs><path class="a8884f62-3f22-4e3e-9c98-88000536276c" d="M979.9,622.8,857.1,671.2l38.3,126.2-130.7-2.3L752.3,925.8,631.8,874,569.9,990l-91.2-94.6L377.3,979.9,328.9,857.1,202.7,896.5,205,764.7,74.2,752.3,126,631.8,10,571l94.6-92.4L20.1,377.2l122.8-48.4-38.3-125,130.7,2.3L247.7,74.3l120.5,52.9,62-117.1,91.2,94.6L622.8,21.3,671.2,143l126.2-38.3-2.3,131.8,130.7,12.4L874,369.3l116,60.8-94.6,91.2Z" transform="translate(-10 -10.1)"/></svg>