<svg id="b42f04f2-6cd1-43b5-9f7a-325b8f861de8" data-name="fe7ba345-899a-4c49-b4ae-bc77c931d83d" xmlns="http://www.w3.org/2000/svg" viewBox="0 0 980 979.9"><defs><style>.ef284244-02ae-4135-b480-3061d82a1a86{fill:#3f3f3f;}</style></defs><path class="ef284244-02ae-4135-b480-3061d82a1a86" d="M969.9,612.7,847.1,661.1l38.3,126.2L754.7,785,742.3,915.7,621.8,863.9l-61.9,116-91.2-94.6L367.3,969.8,318.9,847,192.7,886.4,195,754.6,64.2,742.2,116,621.7,0,560.9l94.6-92.4L10.1,367.1l122.8-48.4-38.3-125L225.3,196,237.7,64.2l120.5,52.9L420.2,0l91.2,94.6L612.8,11.2l48.4,121.7L787.4,94.6l-2.3,131.8,130.7,12.4L864,359.2,980,420l-94.6,91.2Z"/></svg>